<?xml version="1.0" encoding="utf-8"?>
<!-- Generator: Adobe Illustrator 20.1.0, SVG Export Plug-In . SVG Version: 6.00 Build 0)  -->
<svg version="1.1" baseProfile="basic" id="Layer_1"
	 xmlns="http://www.w3.org/2000/svg" xmlns:xlink="http://www.w3.org/1999/xlink" x="0px" y="0px" viewBox="0 0 180 48"
	 xml:space="preserve">
<style type="text/css">
	.st0{fill:none;}
	.st1{fill:url(#SVGID_1_);}
	.st2{fill:url(#SVGID_2_);}
	.st3{fill:url(#SVGID_3_);}
	.st4{fill:#91C098;}
</style>
<g transform="matrix(0,7.4201,-7.4201,0,792.6327,137.3261)">
	
		<rect x="-18.1" y="100.6" transform="matrix(2.535182e-06 1 -1 2.535182e-06 89.0465 119.5919)" class="st0" width="5.6" height="7.4"/>
	<desc>Created with Snap</desc>
	<g>
		
			<linearGradient id="SVGID_1_" gradientUnits="userSpaceOnUse" x1="39.4977" y1="147.4554" x2="39.5978" y2="147.4554" gradientTransform="matrix(3689.0986 0 0 2406.0298 -145726.375 -354677.6563)">
			<stop  offset="0" style="stop-color:#131414;stop-opacity:0.6"/>
			<stop  offset="1" style="stop-color:#131414;stop-opacity:0.6"/>
		</linearGradient>
		<path class="st1" d="M-13,102c-0.5,0-1,0.5-1,1.1c0,0.9-0.4,1.4-1.3,1.4c-0.8,0-1.3-0.5-1.3-1.4c0-0.6-0.4-1.1-1-1.1s-1,0.5-1,1.1
			c0,0.6,0.4,1.1,1,1.1c0.8,0,1.3,0.5,1.3,1.4c0,0.6,0.4,1.1,1,1.1c0.5,0,1-0.5,1-1.1c0-0.9,0.4-1.4,1.3-1.4c0.5,0,1-0.5,1-1.1
			C-12.1,102.5-12.5,102-13,102z"/>
	</g>
</g>
<g transform="matrix(2.7273,0,0,2.7273,513.0001,422.7273)">
	<rect x="-184.5" y="-146.2" class="st0" width="8.1" height="5.1"/>
	<g>
		
			<linearGradient id="SVGID_2_" gradientUnits="userSpaceOnUse" x1="-411.3677" y1="-38.9801" x2="-411.2621" y2="-38.9801" gradientTransform="matrix(498.3868 0 0 325.0478 204836.2344 12526.7529)">
			<stop  offset="0" style="stop-color:#BAD0B0"/>
			<stop  offset="1" style="stop-color:#BAD0B0"/>
		</linearGradient>
		<path class="st2" d="M-178-145.7c-0.6,0-1.1,0.4-1.1,1c0,0.8-0.5,1.3-1.4,1.3s-1.4-0.4-1.4-1.3c0-0.5-0.5-1-1.1-1
			c-0.6,0-1.1,0.4-1.1,1c0,0.5,0.5,1,1.1,1c0.9,0,1.4,0.4,1.4,1.3c0,0.5,0.5,1,1.1,1c0.6,0,1.1-0.4,1.1-1c0-0.8,0.5-1.3,1.4-1.3
			c0.6,0,1.1-0.4,1.1-1C-176.9-145.3-177.4-145.7-178-145.7z"/>
	</g>
</g>
<g transform="matrix(2.7273,0,0,2.7273,449.0001,358.7273)">
	<rect x="-163.5" y="-125" class="st0" width="8.1" height="5.1"/>
	<g>
		
			<linearGradient id="SVGID_3_" gradientUnits="userSpaceOnUse" x1="-379.2548" y1="-24.0527" x2="-379.1492" y2="-24.0527" gradientTransform="matrix(498.3868 0 0 325.0478 188852.6094 7695.8398)">
			<stop  offset="0" style="stop-color:#CC5E5B;stop-opacity:0.77"/>
			<stop  offset="1" style="stop-color:#CC5E5B;stop-opacity:0.77"/>
		</linearGradient>
		<path class="st3" d="M-157-124.5c-0.6,0-1.1,0.4-1.1,1c0,0.8-0.5,1.3-1.4,1.3c-0.9,0-1.4-0.4-1.4-1.3c0-0.5-0.5-1-1.1-1
			s-1.1,0.4-1.1,1c0,0.5,0.5,1,1.1,1c0.9,0,1.4,0.4,1.4,1.3c0,0.5,0.5,1,1.1,1c0.6,0,1.1-0.4,1.1-1c0-0.8,0.5-1.3,1.4-1.3
			c0.6,0,1.1-0.4,1.1-1C-155.9-124.1-156.4-124.5-157-124.5z"/>
	</g>
</g>
<g>
	<path class="st4" d="M49.3,20.1l7.2-16.5h2.7V37h-2V7.9l-8,18.1l-8-18.1V37h-2V3.6H42L49.3,20.1z"/>
	<path class="st4" d="M75.7,42c0,1.6-0.3,2.9-0.9,4c-0.6,1.1-1.3,1.6-2.1,1.6H64v-3.8h8.8c0.3,0,0.5-0.2,0.7-0.5s0.3-0.8,0.3-1.3v-5
		h-9.4c-0.8,0-1.5-0.6-2.1-1.6c-0.6-1.1-0.9-2.4-0.9-4V10.2h2v21.2c0,0.5,0.1,0.9,0.3,1.3c0.2,0.4,0.4,0.5,0.7,0.5h8.4
		c0.3,0,0.5-0.2,0.7-0.5s0.3-0.8,0.3-1.3V10.2h2V42z"/>
	<path class="st4" d="M87.9,3.6h11.6c0.8,0,1.5,0.5,2.1,1.6c0.6,1.1,0.9,2.4,0.9,3.9V37h-2V24.8H87V37h-2V9.2c0-1.6,0.3-2.9,0.9-3.9
		C86.4,4.1,87.1,3.6,87.9,3.6z M87,21.1h13.5V9.2c0-0.5-0.1-0.9-0.3-1.3c-0.2-0.4-0.4-0.5-0.7-0.5H87.9c-0.3,0-0.5,0.2-0.7,0.5
		C87.1,8.3,87,8.7,87,9.2L87,21.1L87,21.1z"/>
	<path class="st4" d="M119.3,15.7v0.4h-2v-0.4c0-0.5-0.1-0.9-0.3-1.3c-0.2-0.4-0.4-0.5-0.7-0.5h-8.4c-0.3,0-0.5,0.2-0.7,0.5
		c-0.2,0.4-0.3,0.8-0.3,1.3v4.1c0,0.5,0.1,0.9,0.3,1.3c0.2,0.4,0.4,0.5,0.7,0.5h8.4c0.8,0,1.5,0.6,2.1,1.6c0.6,1.1,0.9,2.4,0.9,4
		v4.1c0,1.6-0.3,2.9-0.9,4c-0.6,1.1-1.3,1.6-2.1,1.6h-8.4c-0.8,0-1.5-0.6-2.1-1.6c-0.6-1.1-0.9-2.4-0.9-4V31h2v0.4
		c0,0.5,0.1,0.9,0.3,1.3c0.2,0.4,0.4,0.5,0.7,0.5h8.4c0.3,0,0.5-0.2,0.7-0.5c0.2-0.4,0.3-0.8,0.3-1.3v-4.1c0-0.5-0.1-0.9-0.3-1.3
		c-0.2-0.4-0.4-0.5-0.7-0.5h-8.4c-0.8,0-1.5-0.6-2.1-1.6c-0.6-1.1-0.9-2.4-0.9-4v-4.1c0-1.6,0.3-2.9,0.9-4c0.6-1.1,1.3-1.6,2.1-1.6
		h8.4c0.8,0,1.5,0.6,2.1,1.6C119,12.9,119.3,14.2,119.3,15.7z"/>
	<path class="st4" d="M135.9,15.7v0.4h-2v-0.4c0-0.5-0.1-0.9-0.3-1.3c-0.2-0.4-0.4-0.5-0.7-0.5h-8.4c-0.3,0-0.5,0.2-0.7,0.5
		c-0.2,0.4-0.3,0.8-0.3,1.3v4.1c0,0.5,0.1,0.9,0.3,1.3c0.2,0.4,0.4,0.5,0.7,0.5h8.4c0.8,0,1.5,0.6,2.1,1.6c0.6,1.1,0.9,2.4,0.9,4
		v4.1c0,1.6-0.3,2.9-0.9,4c-0.6,1.1-1.3,1.6-2.1,1.6h-8.4c-0.8,0-1.5-0.6-2.1-1.6c-0.6-1.1-0.9-2.4-0.9-4V31h2v0.4
		c0,0.5,0.1,0.9,0.3,1.3c0.2,0.4,0.4,0.5,0.7,0.5h8.4c0.3,0,0.5-0.2,0.7-0.5s0.3-0.8,0.3-1.3v-4.1c0-0.5-0.1-0.9-0.3-1.3
		c-0.2-0.4-0.4-0.5-0.7-0.5h-8.4c-0.8,0-1.5-0.6-2.1-1.6c-0.6-1.1-0.9-2.4-0.9-4v-4.1c0-1.6,0.3-2.9,0.9-4c0.6-1.1,1.3-1.6,2.1-1.6
		h8.4c0.8,0,1.5,0.6,2.1,1.6C135.6,12.9,135.9,14.2,135.9,15.7z"/>
	<path class="st4" d="M149.3,10.1c0.8,0,1.5,0.6,2.1,1.6c0.6,1.1,0.9,2.4,0.9,4v9.8h-12.3v6c0,0.5,0.1,0.9,0.3,1.3
		c0.2,0.4,0.4,0.5,0.7,0.5h11.4V37h-11.4c-0.8,0-1.5-0.6-2.1-1.6c-0.6-1.1-0.9-2.4-0.9-4V15.7c0-1.6,0.3-2.9,0.9-4
		c0.6-1.1,1.3-1.6,2.1-1.6H149.3z M139.9,21.7h10.3v-6c0-0.5-0.1-0.9-0.3-1.3c-0.2-0.4-0.4-0.5-0.7-0.5h-8.4c-0.3,0-0.5,0.2-0.7,0.5
		c-0.2,0.4-0.3,0.8-0.3,1.3L139.9,21.7L139.9,21.7z"/>
	<path class="st4" d="M162.8,13.9h-6.1v17.5c0,0.5,0.1,0.9,0.3,1.3c0.2,0.4,0.4,0.5,0.7,0.5h5.1V37h-5.1c-0.8,0-1.5-0.6-2.1-1.6
		c-0.6-1.1-0.9-2.4-0.9-4V1.3h2v8.8h6.1V13.9z"/>
	<path class="st4" d="M178.8,15.7v0.4h-2v-0.4c0-0.5-0.1-0.9-0.3-1.3c-0.2-0.4-0.4-0.5-0.7-0.5h-8.4c-0.3,0-0.5,0.2-0.7,0.5
		c-0.2,0.4-0.3,0.8-0.3,1.3v4.1c0,0.5,0.1,0.9,0.3,1.3c0.2,0.4,0.4,0.5,0.7,0.5h8.4c0.8,0,1.5,0.6,2.1,1.6c0.6,1.1,0.9,2.4,0.9,4
		v4.1c0,1.6-0.3,2.9-0.9,4c-0.6,1.1-1.3,1.6-2.1,1.6h-8.4c-0.8,0-1.5-0.6-2.1-1.6c-0.6-1.1-0.9-2.4-0.9-4V31h2v0.4
		c0,0.5,0.1,0.9,0.3,1.3s0.4,0.5,0.7,0.5h8.4c0.3,0,0.5-0.2,0.7-0.5c0.2-0.4,0.3-0.8,0.3-1.3v-4.1c0-0.5-0.1-0.9-0.3-1.3
		c-0.2-0.4-0.4-0.5-0.7-0.5h-8.4c-0.8,0-1.5-0.6-2.1-1.6c-0.6-1.1-0.9-2.4-0.9-4v-4.1c0-1.6,0.3-2.9,0.9-4c0.6-1.1,1.3-1.6,2.1-1.6
		h8.4c0.8,0,1.5,0.6,2.1,1.6C178.5,12.9,178.8,14.2,178.8,15.7z"/>
</g>
<g>
</g>
<g>
</g>
<g>
</g>
<g>
</g>
<g>
</g>
<g>
</g>
</svg>
