<?xml version="1.0" encoding="utf-8"?>
<!-- Generator: Adobe Illustrator 20.1.0, SVG Export Plug-In . SVG Version: 6.00 Build 0)  -->
<svg version="1.1" baseProfile="basic" id="Layer_1"
	 xmlns="http://www.w3.org/2000/svg" xmlns:xlink="http://www.w3.org/1999/xlink" x="0px" y="0px" viewBox="0 0 1024 1024"
	 xml:space="preserve">
<style type="text/css">
	.st0{fill:none;}
	.st1{fill:url(#SVGID_1_);}
	.st2{fill:url(#SVGID_2_);}
	.st3{fill:url(#SVGID_3_);}
	.st4{fill:#93C69B;}
</style>
<g transform="matrix(0,7.4201,-7.4201,0,792.6327,137.3261)">
	
		<rect x="-0.1" y="-15.7" transform="matrix(2.535182e-06 1 -1 2.535182e-06 100.6023 2.8478)" class="st0" width="97.9" height="134.8"/>
	<desc>Created with Snap</desc>
	<g>
		
			<linearGradient id="SVGID_1_" gradientUnits="userSpaceOnUse" x1="119.4845" y1="106.7176" x2="121.2347" y2="106.7176" gradientTransform="matrix(0 -324.2584 -497.1764 0 53047.6914 38796.2148)">
			<stop  offset="0" style="stop-color:#0E0F0F;stop-opacity:0.6"/>
			<stop  offset="1" style="stop-color:#0E0F0F;stop-opacity:0.6"/>
		</linearGradient>
		<path class="st1" d="M89.7,12c-9.9,0-17.8,8.4-17.8,18.8c0,16.1-7.6,24.2-22.9,24.2c-15.3,0-22.9-8.1-22.9-24.2
			c0-10.4-8-18.8-17.8-18.8S-9.8,20.5-9.8,30.9c0,10.4,8,18.8,17.8,18.8c15.3,0,22.9,8.1,22.9,24.2c0,10.4,8,18.8,17.8,18.8
			c9.9,0,17.9-8.4,17.9-18.8c0-16.1,7.6-24.2,22.9-24.2c9.9,0,17.9-8.4,17.9-18.8C107.5,20.5,99.5,12,89.7,12z"/>
	</g>
</g>
<g transform="matrix(2.7273,0,0,2.7273,513.0001,422.7273)">
	<rect x="-94.4" y="28.2" class="st0" width="142.2" height="92.8"/>
	<g>
		
			<linearGradient id="SVGID_2_" gradientUnits="userSpaceOnUse" x1="-188.2269" y1="220.2456" x2="-186.3804" y2="220.2456" gradientTransform="matrix(182.74 0 0 -119.183 34311.4219 26324.6816)">
			<stop  offset="0" style="stop-color:#BDD4B2"/>
			<stop  offset="1" style="stop-color:#BDD4B2"/>
		</linearGradient>
		<path class="st2" d="M19.7,36.9c-10.4,0-18.8,8-18.8,17.8c0,15.3-8.1,22.9-24.2,22.9c-16.1,0-24.2-7.6-24.2-22.9
			c0-9.9-8.4-17.8-18.8-17.8s-18.8,8-18.8,17.8c0,9.9,8.4,17.8,18.8,17.8c16.1,0,24.2,7.6,24.2,22.9c0,9.9,8.4,17.8,18.8,17.8
			c10.4,0,18.8-8,18.8-17.8c0-15.3,8.1-22.9,24.2-22.9c10.4,0,18.8-8,18.8-17.8C38.6,44.9,30.1,36.9,19.7,36.9z"/>
	</g>
</g>
<g transform="matrix(2.7273,0,0,2.7273,449.0001,358.7273)">
	<rect x="-114.3" y="10.6" class="st0" width="142.2" height="92.8"/>
	<g>
		
			<linearGradient id="SVGID_3_" gradientUnits="userSpaceOnUse" x1="-164.8691" y1="243.8597" x2="-163.0226" y2="243.8597" gradientTransform="matrix(182.74 0 0 -119.183 30023.1621 29121.4805)">
			<stop  offset="0" style="stop-color:#D55A57;stop-opacity:0.77"/>
			<stop  offset="1" style="stop-color:#D55A57;stop-opacity:0.77"/>
		</linearGradient>
		<path class="st3" d="M-0.1,19.3c-10.4,0-18.8,8-18.8,17.8c0,15.3-8.1,22.9-24.2,22.9c-16.1,0-24.2-7.6-24.2-22.9
			c0-9.9-8.4-17.8-18.8-17.8s-18.8,8-18.8,17.8C-105,47-96.6,55-86.2,55C-70.1,55-62,62.6-62,77.9c0,9.9,8.4,17.8,18.8,17.8
			c10.4,0,18.8-8,18.8-17.8c0-15.3,8.1-22.9,24.2-22.9c10.4,0,18.8-8,18.8-17.8C18.7,27.3,10.3,19.3-0.1,19.3z"/>
	</g>
</g>
<g>
	<path class="st4" d="M104.6,840.5l51-56.1h18.9v113.4h-13.8v-98.9l-56.1,61.6l-56.1-61.6v98.9H34.7V784.4h18.9L104.6,840.5z"/>
	<path class="st4" d="M291.1,914.8c0,5.4-2,9.9-6,13.6c-4,3.7-8.9,5.6-14.7,5.6h-61.7V921h61.7c1.8,0,3.4-0.6,4.7-1.8
		c1.3-1.2,2-2.7,2-4.3v-17h-66c-5.7,0-10.5-1.9-14.6-5.6c-4-3.7-6.1-8.2-6.1-13.5v-72h14v72c0,1.7,0.7,3.1,2,4.3
		c1.3,1.2,2.9,1.8,4.7,1.8h59.3c1.8,0,3.4-0.6,4.7-1.8c1.3-1.2,2-2.7,2-4.3v-72h14V914.8z"/>
	<path class="st4" d="M376.8,784.4h81.8c5.7,0,10.5,1.8,14.5,5.5c4,3.7,6,8.1,6,13.4v94.5h-13.8v-41.4h-95.1v41.4h-13.8v-94.5
		c0-5.3,2-9.7,6-13.4C366.3,786.2,371.2,784.4,376.8,784.4z M370.2,843.6h95.1v-40.3c0-1.7-0.7-3.1-2-4.3c-1.3-1.2-2.9-1.8-4.7-1.8
		h-81.8c-1.8,0-3.4,0.6-4.7,1.8c-1.3,1.2-2,2.7-2,4.3V843.6z"/>
	<path class="st4" d="M598,825.5v1.3h-14.1v-1.3c0-1.7-0.7-3.1-2-4.3c-1.3-1.2-2.9-1.8-4.7-1.8h-59.3c-1.8,0-3.4,0.6-4.7,1.8
		c-1.3,1.2-2,2.7-2,4.3v14c0,1.7,0.7,3.1,2,4.3c1.3,1.2,2.9,1.8,4.7,1.8h59.3c5.8,0,10.7,1.9,14.7,5.6c4,3.7,6.1,8.2,6.1,13.5v14
		c0,5.3-2,9.7-6.1,13.5c-4,3.7-9,5.6-14.7,5.6h-59.3c-5.7,0-10.5-1.9-14.6-5.6c-4-3.7-6.1-8.2-6.1-13.5v-1.3h14v1.3
		c0,1.7,0.7,3.1,2,4.3c1.3,1.2,2.9,1.8,4.7,1.8h59.3c1.8,0,3.4-0.6,4.7-1.8c1.3-1.2,2-2.7,2-4.3v-14c0-1.7-0.7-3.1-2-4.3
		c-1.3-1.2-2.9-1.8-4.7-1.8h-59.3c-5.7,0-10.5-1.9-14.6-5.6c-4-3.7-6.1-8.2-6.1-13.5v-14c0-5.3,2-9.7,6.1-13.5
		c4-3.7,8.9-5.6,14.6-5.6h59.3c5.8,0,10.7,1.9,14.7,5.6C595.9,815.8,598,820.2,598,825.5z"/>
	<path class="st4" d="M714.9,825.5v1.3h-14.1v-1.3c0-1.7-0.7-3.1-2-4.3c-1.3-1.2-2.9-1.8-4.7-1.8h-59.3c-1.8,0-3.4,0.6-4.7,1.8
		c-1.3,1.2-2,2.7-2,4.3v14c0,1.7,0.7,3.1,2,4.3c1.3,1.2,2.9,1.8,4.7,1.8h59.3c5.8,0,10.7,1.9,14.7,5.6c4,3.7,6.1,8.2,6.1,13.5v14
		c0,5.3-2,9.7-6.1,13.5c-4,3.7-9,5.6-14.7,5.6h-59.3c-5.7,0-10.5-1.9-14.6-5.6c-4-3.7-6.1-8.2-6.1-13.5v-1.3h14v1.3
		c0,1.7,0.7,3.1,2,4.3c1.3,1.2,2.9,1.8,4.7,1.8h59.3c1.8,0,3.4-0.6,4.7-1.8c1.3-1.2,2-2.7,2-4.3v-14c0-1.7-0.7-3.1-2-4.3
		c-1.3-1.2-2.9-1.8-4.7-1.8h-59.3c-5.7,0-10.5-1.9-14.6-5.6c-4-3.7-6.1-8.2-6.1-13.5v-14c0-5.3,2-9.7,6.1-13.5
		c4-3.7,8.9-5.6,14.6-5.6h59.3c5.8,0,10.7,1.9,14.7,5.6C712.9,815.8,714.9,820.2,714.9,825.5z"/>
	<path class="st4" d="M809,806.4c5.8,0,10.7,1.9,14.7,5.6c4,3.7,6.1,8.2,6.1,13.5v33.1H743v20.2c0,1.7,0.7,3.1,2,4.3
		c1.3,1.2,2.9,1.8,4.7,1.8h80.1v12.9h-80.1c-5.7,0-10.5-1.9-14.6-5.6c-4-3.7-6.1-8.2-6.1-13.5v-53.2c0-5.3,2-9.7,6.1-13.5
		c4-3.7,8.9-5.6,14.6-5.6H809z M743,845.7h72.6v-20.2c0-1.7-0.7-3.1-2-4.3c-1.3-1.2-2.9-1.8-4.7-1.8h-59.3c-1.8,0-3.4,0.6-4.7,1.8
		c-1.3,1.2-2,2.7-2,4.3V845.7z"/>
	<path class="st4" d="M904.1,819.4h-42.8v59.4c0,1.7,0.7,3.1,2,4.3c1.3,1.2,2.9,1.8,4.7,1.8h36.1v12.9H868c-5.8,0-10.7-1.9-14.7-5.6
		c-4-3.7-6-8.2-6-13.5V776.5h14v29.9h42.8V819.4z"/>
	<path class="st4" d="M1017.2,825.5v1.3H1003v-1.3c0-1.7-0.7-3.1-2-4.3c-1.3-1.2-2.9-1.8-4.7-1.8H937c-1.8,0-3.4,0.6-4.7,1.8
		c-1.3,1.2-2,2.7-2,4.3v14c0,1.7,0.7,3.1,2,4.3c1.3,1.2,2.9,1.8,4.7,1.8h59.3c5.8,0,10.7,1.9,14.7,5.6c4,3.7,6.1,8.2,6.1,13.5v14
		c0,5.3-2,9.7-6.1,13.5c-4,3.7-9,5.6-14.7,5.6H937c-5.7,0-10.5-1.9-14.6-5.6c-4-3.7-6.1-8.2-6.1-13.5v-1.3h14v1.3
		c0,1.7,0.7,3.1,2,4.3c1.3,1.2,2.9,1.8,4.7,1.8h59.3c1.8,0,3.4-0.6,4.7-1.8c1.3-1.2,2-2.7,2-4.3v-14c0-1.7-0.7-3.1-2-4.3
		c-1.3-1.2-2.9-1.8-4.7-1.8H937c-5.7,0-10.5-1.9-14.6-5.6c-4-3.7-6.1-8.2-6.1-13.5v-14c0-5.3,2-9.7,6.1-13.5c4-3.7,8.9-5.6,14.6-5.6
		h59.3c5.8,0,10.7,1.9,14.7,5.6C1015.1,815.8,1017.2,820.2,1017.2,825.5z"/>
</g>
<g>
</g>
<g>
</g>
<g>
</g>
<g>
</g>
<g>
</g>
<g>
</g>
</svg>
